<svg xmlns="http://www.w3.org/2000/svg" width="30" height="30" viewBox="0 0 30 30"><path d="M22.5,8.14A10.164,10.164,0,0,0,5.707,13.074a.728.728,0,0,1-.7.553H1.536a.725.725,0,0,1-.714-.857,15,15,0,0,1,25.1-8.053l2.16-2.16a1.452,1.452,0,0,1,2.478,1.026v8.108a1.452,1.452,0,0,1-1.452,1.452H21a1.452,1.452,0,0,1-1.026-2.478ZM2.014,17.982h8.108a1.452,1.452,0,0,1,1.026,2.478L8.624,22.985a10.164,10.164,0,0,0,16.794-4.934.728.728,0,0,1,.7-.553h3.466a.725.725,0,0,1,.714.857A15,15,0,0,1,5.2,26.408l-2.16,2.16A1.452,1.452,0,0,1,.563,27.542V19.433A1.452,1.452,0,0,1,2.014,17.982Z" transform="translate(-0.563 -0.563)" fill="#f4b700"/></svg>